<mxfile host="Electron" modified="2024-04-25T13:50:29.609Z" agent="Mozilla/5.0 (X11; Linux x86_64) AppleWebKit/537.36 (KHTML, like Gecko) draw.io/24.2.5 Chrome/120.0.6099.109 Electron/28.1.0 Safari/537.36" etag="CWTW7-kHiERuKxQMPbeB" version="24.2.5" type="device">
  <diagram name="Page-1" id="mIhI7RQwEGx9vL1KMDjh">
    <mxGraphModel dx="2366" dy="937" grid="1" gridSize="10" guides="1" tooltips="1" connect="1" arrows="1" fold="1" page="1" pageScale="1" pageWidth="850" pageHeight="1100" math="0" shadow="0">
      <root>
        <mxCell id="0" />
        <mxCell id="1" parent="0" />
        <mxCell id="CyPte9sbAEYsUHfTeA6C-51" value="" style="rounded=0;whiteSpace=wrap;html=1;fillColor=#fff2cc;strokeColor=#d6b656;" parent="1" vertex="1">
          <mxGeometry x="460" y="720" width="420" height="160" as="geometry" />
        </mxCell>
        <mxCell id="CyPte9sbAEYsUHfTeA6C-50" value="" style="rounded=0;whiteSpace=wrap;html=1;fillColor=#d5e8d4;strokeColor=#82b366;" parent="1" vertex="1">
          <mxGeometry y="380" width="1060" height="180" as="geometry" />
        </mxCell>
        <mxCell id="CyPte9sbAEYsUHfTeA6C-49" value="" style="rounded=0;whiteSpace=wrap;html=1;fillColor=#dae8fc;strokeColor=#6c8ebf;" parent="1" vertex="1">
          <mxGeometry width="1060" height="380" as="geometry" />
        </mxCell>
        <mxCell id="CyPte9sbAEYsUHfTeA6C-4" style="edgeStyle=orthogonalEdgeStyle;rounded=0;orthogonalLoop=1;jettySize=auto;html=1;exitX=1;exitY=0.5;exitDx=0;exitDy=0;entryX=0;entryY=0.5;entryDx=0;entryDy=0;" parent="1" source="CyPte9sbAEYsUHfTeA6C-2" target="CyPte9sbAEYsUHfTeA6C-3" edge="1">
          <mxGeometry relative="1" as="geometry" />
        </mxCell>
        <mxCell id="CyPte9sbAEYsUHfTeA6C-22" style="edgeStyle=orthogonalEdgeStyle;rounded=0;orthogonalLoop=1;jettySize=auto;html=1;exitX=0.5;exitY=1;exitDx=0;exitDy=0;entryX=0.5;entryY=0;entryDx=0;entryDy=0;" parent="1" source="CyPte9sbAEYsUHfTeA6C-2" target="CyPte9sbAEYsUHfTeA6C-12" edge="1">
          <mxGeometry relative="1" as="geometry" />
        </mxCell>
        <mxCell id="CyPte9sbAEYsUHfTeA6C-23" style="edgeStyle=orthogonalEdgeStyle;rounded=0;orthogonalLoop=1;jettySize=auto;html=1;exitX=0.5;exitY=1;exitDx=0;exitDy=0;entryX=0.5;entryY=0;entryDx=0;entryDy=0;" parent="1" source="CyPte9sbAEYsUHfTeA6C-2" target="CyPte9sbAEYsUHfTeA6C-13" edge="1">
          <mxGeometry relative="1" as="geometry" />
        </mxCell>
        <mxCell id="lkHkTBLo_OWP86zzYWlI-12" style="edgeStyle=orthogonalEdgeStyle;rounded=0;orthogonalLoop=1;jettySize=auto;html=1;exitX=0.5;exitY=1;exitDx=0;exitDy=0;" parent="1" source="CyPte9sbAEYsUHfTeA6C-2" target="lkHkTBLo_OWP86zzYWlI-11" edge="1">
          <mxGeometry relative="1" as="geometry" />
        </mxCell>
        <mxCell id="CyPte9sbAEYsUHfTeA6C-2" value="FlexPRET" style="rounded=0;whiteSpace=wrap;html=1;fillColor=#a20025;strokeColor=#6F0000;fontColor=#ffffff;" parent="1" vertex="1">
          <mxGeometry x="310" y="140" width="120" height="60" as="geometry" />
        </mxCell>
        <mxCell id="CyPte9sbAEYsUHfTeA6C-7" style="edgeStyle=orthogonalEdgeStyle;rounded=0;orthogonalLoop=1;jettySize=auto;html=1;exitX=0.5;exitY=0;exitDx=0;exitDy=0;entryX=0;entryY=0.5;entryDx=0;entryDy=0;" parent="1" source="CyPte9sbAEYsUHfTeA6C-3" target="CyPte9sbAEYsUHfTeA6C-5" edge="1">
          <mxGeometry relative="1" as="geometry" />
        </mxCell>
        <mxCell id="CyPte9sbAEYsUHfTeA6C-8" style="edgeStyle=orthogonalEdgeStyle;rounded=0;orthogonalLoop=1;jettySize=auto;html=1;exitX=0.5;exitY=1;exitDx=0;exitDy=0;entryX=0;entryY=0.5;entryDx=0;entryDy=0;" parent="1" source="CyPte9sbAEYsUHfTeA6C-3" target="CyPte9sbAEYsUHfTeA6C-6" edge="1">
          <mxGeometry relative="1" as="geometry" />
        </mxCell>
        <mxCell id="CyPte9sbAEYsUHfTeA6C-3" value="FlexPRET.v" style="ellipse;whiteSpace=wrap;html=1;dashed=1;" parent="1" vertex="1">
          <mxGeometry x="510" y="130" width="120" height="80" as="geometry" />
        </mxCell>
        <mxCell id="CyPte9sbAEYsUHfTeA6C-19" style="edgeStyle=orthogonalEdgeStyle;rounded=0;orthogonalLoop=1;jettySize=auto;html=1;exitX=1;exitY=0.5;exitDx=0;exitDy=0;entryX=0;entryY=0.5;entryDx=0;entryDy=0;" parent="1" source="CyPte9sbAEYsUHfTeA6C-5" target="CyPte9sbAEYsUHfTeA6C-16" edge="1">
          <mxGeometry relative="1" as="geometry" />
        </mxCell>
        <mxCell id="CyPte9sbAEYsUHfTeA6C-5" value="Emulator" style="rounded=0;whiteSpace=wrap;html=1;fillColor=#a20025;strokeColor=#6F0000;fontColor=#ffffff;" parent="1" vertex="1">
          <mxGeometry x="710" y="40" width="120" height="60" as="geometry" />
        </mxCell>
        <mxCell id="CyPte9sbAEYsUHfTeA6C-18" style="edgeStyle=orthogonalEdgeStyle;rounded=0;orthogonalLoop=1;jettySize=auto;html=1;exitX=1;exitY=0.5;exitDx=0;exitDy=0;entryX=0;entryY=0.5;entryDx=0;entryDy=0;" parent="1" source="CyPte9sbAEYsUHfTeA6C-6" target="CyPte9sbAEYsUHfTeA6C-17" edge="1">
          <mxGeometry relative="1" as="geometry" />
        </mxCell>
        <mxCell id="CyPte9sbAEYsUHfTeA6C-6" value="FPGA" style="rounded=0;whiteSpace=wrap;html=1;fillColor=#a20025;strokeColor=#6F0000;fontColor=#ffffff;" parent="1" vertex="1">
          <mxGeometry x="710" y="220" width="120" height="60" as="geometry" />
        </mxCell>
        <mxCell id="CyPte9sbAEYsUHfTeA6C-9" value="default_config&lt;div&gt;.cmake&lt;/div&gt;" style="rounded=0;whiteSpace=wrap;html=1;" parent="1" vertex="1">
          <mxGeometry x="50" y="60" width="120" height="60" as="geometry" />
        </mxCell>
        <mxCell id="CyPte9sbAEYsUHfTeA6C-21" style="edgeStyle=orthogonalEdgeStyle;rounded=0;orthogonalLoop=1;jettySize=auto;html=1;exitX=1;exitY=0.5;exitDx=0;exitDy=0;" parent="1" source="CyPte9sbAEYsUHfTeA6C-20" target="CyPte9sbAEYsUHfTeA6C-2" edge="1">
          <mxGeometry relative="1" as="geometry">
            <Array as="points">
              <mxPoint x="200" y="250" />
              <mxPoint x="200" y="170" />
            </Array>
          </mxGeometry>
        </mxCell>
        <mxCell id="CyPte9sbAEYsUHfTeA6C-10" value="custom_config&lt;div&gt;.cmake&lt;/div&gt;" style="rounded=0;whiteSpace=wrap;html=1;" parent="1" vertex="1">
          <mxGeometry x="50" y="140" width="120" height="60" as="geometry" />
        </mxCell>
        <mxCell id="CyPte9sbAEYsUHfTeA6C-31" style="edgeStyle=orthogonalEdgeStyle;rounded=0;orthogonalLoop=1;jettySize=auto;html=1;exitX=0.5;exitY=1;exitDx=0;exitDy=0;entryX=0.5;entryY=0;entryDx=0;entryDy=0;" parent="1" source="CyPte9sbAEYsUHfTeA6C-12" target="CyPte9sbAEYsUHfTeA6C-27" edge="1">
          <mxGeometry relative="1" as="geometry" />
        </mxCell>
        <mxCell id="CyPte9sbAEYsUHfTeA6C-12" value="hwconfig.h" style="ellipse;whiteSpace=wrap;html=1;dashed=1;" parent="1" vertex="1">
          <mxGeometry x="185" y="280" width="120" height="80" as="geometry" />
        </mxCell>
        <mxCell id="CyPte9sbAEYsUHfTeA6C-33" style="edgeStyle=orthogonalEdgeStyle;rounded=0;orthogonalLoop=1;jettySize=auto;html=1;exitX=0.5;exitY=1;exitDx=0;exitDy=0;entryX=0.5;entryY=0;entryDx=0;entryDy=0;" parent="1" source="CyPte9sbAEYsUHfTeA6C-13" target="CyPte9sbAEYsUHfTeA6C-27" edge="1">
          <mxGeometry relative="1" as="geometry" />
        </mxCell>
        <mxCell id="CyPte9sbAEYsUHfTeA6C-13" value="hwconfig.ld" style="ellipse;whiteSpace=wrap;html=1;dashed=1;" parent="1" vertex="1">
          <mxGeometry x="310" y="280" width="120" height="80" as="geometry" />
        </mxCell>
        <mxCell id="CyPte9sbAEYsUHfTeA6C-16" value="fp-emu" style="ellipse;whiteSpace=wrap;html=1;dashed=1;" parent="1" vertex="1">
          <mxGeometry x="890" y="30" width="120" height="80" as="geometry" />
        </mxCell>
        <mxCell id="CyPte9sbAEYsUHfTeA6C-17" value="bitstream.bit" style="ellipse;whiteSpace=wrap;html=1;dashed=1;" parent="1" vertex="1">
          <mxGeometry x="890" y="210" width="120" height="80" as="geometry" />
        </mxCell>
        <mxCell id="CyPte9sbAEYsUHfTeA6C-20" value="high_mem_config&lt;div&gt;.cmake&lt;/div&gt;" style="rounded=0;whiteSpace=wrap;html=1;" parent="1" vertex="1">
          <mxGeometry x="50" y="220" width="120" height="60" as="geometry" />
        </mxCell>
        <mxCell id="CyPte9sbAEYsUHfTeA6C-26" value="User selects&lt;div&gt;config&lt;/div&gt;" style="text;html=1;align=center;verticalAlign=middle;whiteSpace=wrap;rounded=0;" parent="1" vertex="1">
          <mxGeometry x="200" y="130" width="110" height="30" as="geometry" />
        </mxCell>
        <mxCell id="CyPte9sbAEYsUHfTeA6C-36" style="edgeStyle=orthogonalEdgeStyle;rounded=0;orthogonalLoop=1;jettySize=auto;html=1;exitX=1;exitY=0.5;exitDx=0;exitDy=0;entryX=0;entryY=0.5;entryDx=0;entryDy=0;" parent="1" source="CyPte9sbAEYsUHfTeA6C-27" target="CyPte9sbAEYsUHfTeA6C-35" edge="1">
          <mxGeometry relative="1" as="geometry" />
        </mxCell>
        <mxCell id="CyPte9sbAEYsUHfTeA6C-27" value="FlexPRET SDK" style="rounded=0;whiteSpace=wrap;html=1;fillColor=#a20025;strokeColor=#6F0000;fontColor=#ffffff;" parent="1" vertex="1">
          <mxGeometry x="310" y="460" width="120" height="60" as="geometry" />
        </mxCell>
        <mxCell id="CyPte9sbAEYsUHfTeA6C-30" style="edgeStyle=orthogonalEdgeStyle;rounded=0;orthogonalLoop=1;jettySize=auto;html=1;exitX=1;exitY=0.5;exitDx=0;exitDy=0;entryX=0;entryY=0.5;entryDx=0;entryDy=0;" parent="1" source="CyPte9sbAEYsUHfTeA6C-29" target="CyPte9sbAEYsUHfTeA6C-27" edge="1">
          <mxGeometry relative="1" as="geometry" />
        </mxCell>
        <mxCell id="CyPte9sbAEYsUHfTeA6C-29" value="riscv-toolchain&lt;div&gt;.cmake&lt;/div&gt;" style="rounded=0;whiteSpace=wrap;html=1;" parent="1" vertex="1">
          <mxGeometry x="50" y="460" width="120" height="60" as="geometry" />
        </mxCell>
        <mxCell id="CyPte9sbAEYsUHfTeA6C-34" value="Install step" style="text;html=1;align=center;verticalAlign=middle;whiteSpace=wrap;rounded=0;" parent="1" vertex="1">
          <mxGeometry x="380" y="420" width="60" height="30" as="geometry" />
        </mxCell>
        <mxCell id="CyPte9sbAEYsUHfTeA6C-38" style="edgeStyle=orthogonalEdgeStyle;rounded=0;orthogonalLoop=1;jettySize=auto;html=1;exitX=0.5;exitY=1;exitDx=0;exitDy=0;entryX=0.5;entryY=0;entryDx=0;entryDy=0;" parent="1" source="CyPte9sbAEYsUHfTeA6C-35" target="CyPte9sbAEYsUHfTeA6C-37" edge="1">
          <mxGeometry relative="1" as="geometry" />
        </mxCell>
        <mxCell id="lkHkTBLo_OWP86zzYWlI-2" style="edgeStyle=orthogonalEdgeStyle;rounded=0;orthogonalLoop=1;jettySize=auto;html=1;exitX=1;exitY=0.5;exitDx=0;exitDy=0;entryX=0;entryY=0.5;entryDx=0;entryDy=0;" parent="1" source="CyPte9sbAEYsUHfTeA6C-35" target="lkHkTBLo_OWP86zzYWlI-1" edge="1">
          <mxGeometry relative="1" as="geometry" />
        </mxCell>
        <mxCell id="v_tSahlUesXtBRprTS6I-3" style="edgeStyle=orthogonalEdgeStyle;rounded=0;orthogonalLoop=1;jettySize=auto;html=1;exitX=1;exitY=0.5;exitDx=0;exitDy=0;entryX=0.5;entryY=1;entryDx=0;entryDy=0;" edge="1" parent="1" source="CyPte9sbAEYsUHfTeA6C-35" target="v_tSahlUesXtBRprTS6I-2">
          <mxGeometry relative="1" as="geometry" />
        </mxCell>
        <mxCell id="CyPte9sbAEYsUHfTeA6C-35" value=".c files,&lt;div&gt;compiler flags,&lt;/div&gt;&lt;div&gt;linker scripts,&lt;/div&gt;&lt;div&gt;...&lt;/div&gt;" style="ellipse;whiteSpace=wrap;html=1;dashed=1;" parent="1" vertex="1">
          <mxGeometry x="500" y="450" width="120" height="80" as="geometry" />
        </mxCell>
        <mxCell id="CyPte9sbAEYsUHfTeA6C-43" style="edgeStyle=orthogonalEdgeStyle;rounded=0;orthogonalLoop=1;jettySize=auto;html=1;exitX=1;exitY=0.5;exitDx=0;exitDy=0;entryX=0;entryY=0.5;entryDx=0;entryDy=0;" parent="1" source="CyPte9sbAEYsUHfTeA6C-37" target="CyPte9sbAEYsUHfTeA6C-42" edge="1">
          <mxGeometry relative="1" as="geometry" />
        </mxCell>
        <mxCell id="CyPte9sbAEYsUHfTeA6C-37" value="Application" style="rounded=0;whiteSpace=wrap;html=1;fillColor=#a20025;strokeColor=#6F0000;fontColor=#ffffff;" parent="1" vertex="1">
          <mxGeometry x="500" y="780" width="120" height="60" as="geometry" />
        </mxCell>
        <mxCell id="CyPte9sbAEYsUHfTeA6C-39" value="libfpsdk.a" style="ellipse;whiteSpace=wrap;html=1;dashed=1;" parent="1" vertex="1">
          <mxGeometry x="690" y="740" width="120" height="80" as="geometry" />
        </mxCell>
        <mxCell id="CyPte9sbAEYsUHfTeA6C-40" value="libfpsdk.a" style="ellipse;whiteSpace=wrap;html=1;dashed=1;" parent="1" vertex="1">
          <mxGeometry x="700" y="750" width="120" height="80" as="geometry" />
        </mxCell>
        <mxCell id="CyPte9sbAEYsUHfTeA6C-41" value="libfpsdk.a" style="ellipse;whiteSpace=wrap;html=1;dashed=1;" parent="1" vertex="1">
          <mxGeometry x="710" y="760" width="120" height="80" as="geometry" />
        </mxCell>
        <mxCell id="CyPte9sbAEYsUHfTeA6C-42" value=".sh, .dump,&amp;nbsp;&lt;div&gt;.mem,&amp;nbsp;&lt;span style=&quot;background-color: initial;&quot;&gt;...&lt;/span&gt;&lt;/div&gt;" style="ellipse;whiteSpace=wrap;html=1;dashed=1;" parent="1" vertex="1">
          <mxGeometry x="720" y="770" width="120" height="80" as="geometry" />
        </mxCell>
        <mxCell id="CyPte9sbAEYsUHfTeA6C-45" style="edgeStyle=orthogonalEdgeStyle;rounded=0;orthogonalLoop=1;jettySize=auto;html=1;exitX=1;exitY=0.5;exitDx=0;exitDy=0;entryX=0;entryY=0.5;entryDx=0;entryDy=0;" parent="1" source="CyPte9sbAEYsUHfTeA6C-44" target="CyPte9sbAEYsUHfTeA6C-37" edge="1">
          <mxGeometry relative="1" as="geometry" />
        </mxCell>
        <mxCell id="CyPte9sbAEYsUHfTeA6C-44" value="&lt;div&gt;Other libraries, e.g.,&lt;/div&gt;libreactor.a" style="ellipse;whiteSpace=wrap;html=1;dashed=1;" parent="1" vertex="1">
          <mxGeometry x="305" y="770" width="120" height="80" as="geometry" />
        </mxCell>
        <mxCell id="lkHkTBLo_OWP86zzYWlI-1" value="Tests" style="rounded=0;whiteSpace=wrap;html=1;fillColor=#a20025;strokeColor=#6F0000;fontColor=#ffffff;" parent="1" vertex="1">
          <mxGeometry x="890" y="460" width="120" height="60" as="geometry" />
        </mxCell>
        <mxCell id="lkHkTBLo_OWP86zzYWlI-3" value="&lt;font style=&quot;font-size: 30px;&quot;&gt;&lt;b&gt;FlexPRET&lt;/b&gt;&lt;/font&gt;&lt;div&gt;&lt;span style=&quot;font-size: 30px;&quot;&gt;&lt;b&gt;hardware&lt;/b&gt;&lt;/span&gt;&lt;/div&gt;" style="text;html=1;align=center;verticalAlign=middle;whiteSpace=wrap;rounded=0;" parent="1" vertex="1">
          <mxGeometry x="235" y="30" width="270" height="30" as="geometry" />
        </mxCell>
        <mxCell id="lkHkTBLo_OWP86zzYWlI-4" value="&lt;span style=&quot;font-size: 30px;&quot;&gt;&lt;b&gt;FlexPRET&amp;nbsp;&lt;/b&gt;&lt;/span&gt;&lt;b style=&quot;font-size: 30px; background-color: initial;&quot;&gt;SDK&lt;/b&gt;" style="text;html=1;align=center;verticalAlign=middle;whiteSpace=wrap;rounded=0;" parent="1" vertex="1">
          <mxGeometry x="10" y="400" width="220" height="30" as="geometry" />
        </mxCell>
        <mxCell id="v_tSahlUesXtBRprTS6I-1" style="edgeStyle=orthogonalEdgeStyle;rounded=0;orthogonalLoop=1;jettySize=auto;html=1;exitX=0.5;exitY=1;exitDx=0;exitDy=0;entryX=0.5;entryY=0;entryDx=0;entryDy=0;" edge="1" parent="1" source="lkHkTBLo_OWP86zzYWlI-11" target="CyPte9sbAEYsUHfTeA6C-27">
          <mxGeometry relative="1" as="geometry" />
        </mxCell>
        <mxCell id="lkHkTBLo_OWP86zzYWlI-11" value="hwconfig.cmake" style="ellipse;whiteSpace=wrap;html=1;dashed=1;" parent="1" vertex="1">
          <mxGeometry x="440" y="280" width="120" height="80" as="geometry" />
        </mxCell>
        <mxCell id="9l-DEYRQYWc43RpXPIPk-2" value="" style="endArrow=none;dashed=1;html=1;dashPattern=1 3;strokeWidth=2;rounded=0;" parent="1" edge="1">
          <mxGeometry width="50" height="50" relative="1" as="geometry">
            <mxPoint x="-70" y="640" as="sourcePoint" />
            <mxPoint x="1120" y="640" as="targetPoint" />
          </mxGeometry>
        </mxCell>
        <mxCell id="9l-DEYRQYWc43RpXPIPk-3" value="&lt;font style=&quot;font-size: 30px;&quot;&gt;FlexPRET repository&lt;/font&gt;" style="text;html=1;align=center;verticalAlign=middle;whiteSpace=wrap;rounded=0;" parent="1" vertex="1">
          <mxGeometry x="-10" y="600" width="350" height="30" as="geometry" />
        </mxCell>
        <mxCell id="9l-DEYRQYWc43RpXPIPk-4" value="&lt;font style=&quot;font-size: 30px;&quot;&gt;Other repository&lt;/font&gt;" style="text;html=1;align=center;verticalAlign=middle;whiteSpace=wrap;rounded=0;" parent="1" vertex="1">
          <mxGeometry x="-10" y="670" width="350" height="30" as="geometry" />
        </mxCell>
        <mxCell id="9l-DEYRQYWc43RpXPIPk-7" value="&lt;font style=&quot;font-size: 20px;&quot;&gt;FP_SDK_PATH=/home/magnus/git/flexpret&lt;/font&gt;" style="text;html=1;align=center;verticalAlign=middle;whiteSpace=wrap;rounded=0;" parent="1" vertex="1">
          <mxGeometry x="590" y="650" width="380" height="30" as="geometry" />
        </mxCell>
        <mxCell id="v_tSahlUesXtBRprTS6I-4" style="edgeStyle=orthogonalEdgeStyle;rounded=0;orthogonalLoop=1;jettySize=auto;html=1;exitX=0.5;exitY=0;exitDx=0;exitDy=0;entryX=0.5;entryY=1;entryDx=0;entryDy=0;" edge="1" parent="1" source="v_tSahlUesXtBRprTS6I-2" target="CyPte9sbAEYsUHfTeA6C-6">
          <mxGeometry relative="1" as="geometry" />
        </mxCell>
        <mxCell id="v_tSahlUesXtBRprTS6I-2" value="Bootloader" style="ellipse;whiteSpace=wrap;html=1;dashed=1;" vertex="1" parent="1">
          <mxGeometry x="710" y="340" width="120" height="80" as="geometry" />
        </mxCell>
      </root>
    </mxGraphModel>
  </diagram>
</mxfile>
